<?xml version="1.0" encoding="UTF-8" standalone="no"?>
<!DOCTYPE svg PUBLIC "-//W3C//DTD SVG 1.1//EN" "http://www.w3.org/Graphics/SVG/1.1/DTD/svg11.dtd">
<svg width="100%" height="100%" viewBox="0 0 1024 1024" version="1.1" xmlns="http://www.w3.org/2000/svg" xmlns:xlink="http://www.w3.org/1999/xlink" xml:space="preserve" xmlns:serif="http://www.serif.com/" style="fill-rule:evenodd;clip-rule:evenodd;stroke-linecap:round;stroke-linejoin:round;stroke-miterlimit:1.5;">
    <g transform="matrix(1,0,0,1,5.59439,216.959)">
        <path d="M130.241,185.886C143.637,185.544 157.424,192.235 170.82,191.893C184.416,191.546 201.243,177.129 214.836,176.737C223.747,176.48 230.637,194.589 239.536,194.359C247.262,194.16 255.248,181.104 262.971,180.875C270.032,180.666 271.083,191.307 278.142,191.106C283.801,190.945 289.417,163.427 295.085,163.253C301.703,163.049 315.666,204.899 322.296,204.743C329.262,204.579 345.361,161.062 352.318,160.831C361.771,160.516 369.176,207.816 378.564,207.624C387.053,207.45 417.671,124.127 426.123,123.806C458.941,122.56 451.424,233.379 482.302,236.25C505.918,238.446 512.495,141.943 538.086,138.282C558.358,135.383 559.885,208.876 582.113,209.958C601.214,210.888 594.14,163.709 615.464,160.941C636.238,158.245 618.81,212.419 643.266,212.818C662.255,213.128 642.732,168.456 666.845,163.253C682.301,159.917 665.596,198.891 685.47,198.753C696.416,198.677 695.156,170.197 708.504,168.346C721.117,166.597 719.538,201.465 733.885,200.938C745.689,200.505 752.68,176.474 765.714,173.552C779.443,170.473 780.096,196.627 793.824,195.668C802.235,195.08 813.251,181.913 822.404,178.432C833.9,174.061 845.459,187.281 856.922,190.234C867.668,193.003 879.843,189.706 882.571,189.636" style="fill:none;stroke:black;stroke-width:26.67px;"/>
    </g>
</svg>
