<?xml version="1.0" encoding="UTF-8" standalone="no"?>
<!DOCTYPE svg PUBLIC "-//W3C//DTD SVG 1.1//EN" "http://www.w3.org/Graphics/SVG/1.1/DTD/svg11.dtd">
<svg width="100%" height="100%" viewBox="0 0 1024 1024" version="1.1" xmlns="http://www.w3.org/2000/svg" xmlns:xlink="http://www.w3.org/1999/xlink" xml:space="preserve" xmlns:serif="http://www.serif.com/" style="fill-rule:evenodd;clip-rule:evenodd;stroke-linecap:round;stroke-linejoin:round;stroke-miterlimit:1.5;">
    <g transform="matrix(1,0,0,1,0,114)">
        <g transform="matrix(1,0,0,1,11.8797,569.679)">
            <path d="M130.241,174.818C139.031,178.517 156.613,185.914 169.352,182.207C184.215,177.882 200.726,145.913 219.415,148.871C238.104,151.829 263.201,197.775 281.485,199.954C299.768,202.132 314.706,163.565 329.114,161.942C343.521,160.319 352.435,194.226 367.931,190.214C386.539,185.397 416.751,129.095 440.763,133.039C464.774,136.983 490.222,211.845 512,213.878C533.778,215.911 554.582,149.987 571.431,145.237C588.279,140.488 599.42,187.468 613.093,185.382C626.766,183.296 638.329,133.126 653.467,132.721C668.605,132.316 688.425,180.106 703.922,182.952C719.419,185.797 728.666,148.149 746.448,149.792C764.229,151.434 792.454,191.821 810.61,192.805C828.766,193.789 845.486,159.996 855.384,155.695C861.033,153.24 867.011,162.413 870,167" style="fill:none;stroke:black;stroke-width:26.67px;"/>
        </g>
        <g transform="matrix(1,0,0,1,11.8797,339.679)">
            <path d="M130.241,174.818C139.031,178.517 156.613,185.914 169.352,182.207C184.215,177.882 200.726,145.913 219.415,148.871C238.104,151.829 263.201,197.775 281.485,199.954C299.768,202.132 314.706,163.565 329.114,161.942C343.521,160.319 352.435,194.226 367.931,190.214C386.539,185.397 416.751,129.095 440.763,133.039C464.774,136.983 490.222,211.845 512,213.878C533.778,215.911 554.582,149.987 571.431,145.237C588.279,140.488 599.42,187.468 613.093,185.382C626.766,183.296 638.329,133.126 653.467,132.721C668.605,132.316 688.425,180.106 703.922,182.952C719.419,185.797 728.666,148.149 746.448,149.792C764.229,151.434 792.454,191.821 810.61,192.805C828.766,193.789 845.486,159.996 855.384,155.695C861.033,153.24 867.011,162.413 870,167" style="fill:none;stroke:black;stroke-width:26.67px;"/>
        </g>
        <g transform="matrix(1,0,0,1,11.8797,-120.321)">
            <path d="M130.241,174.818C139.031,178.517 156.613,185.914 169.352,182.207C184.215,177.882 200.726,145.913 219.415,148.871C238.104,151.829 263.201,197.775 281.485,199.954C299.768,202.132 314.706,163.565 329.114,161.942C343.521,160.319 352.435,194.226 367.931,190.214C386.539,185.397 416.751,129.095 440.763,133.039C464.774,136.983 490.222,211.845 512,213.878C533.778,215.911 554.582,149.987 571.431,145.237C588.279,140.488 599.42,187.468 613.093,185.382C626.766,183.296 638.329,133.126 653.467,132.721C668.605,132.316 688.425,180.106 703.922,182.952C719.419,185.797 728.666,148.149 746.448,149.792C764.229,151.434 792.454,191.821 810.61,192.805C828.766,193.789 845.486,159.996 855.384,155.695C861.033,153.24 867.011,162.413 870,167" style="fill:none;stroke:black;stroke-width:26.67px;"/>
        </g>
    </g>
</svg>
